<svg width="116" height="50" viewBox="0 0 116 50" xmlns="http://www.w3.org/2000/svg">
<g class="fill">
<path d="M4.76971 38.4529V19.0313H0V15.7513C7.38428 11.8808 12.4825 7.87886 16.9925 3.28418V15.7513H25.7507V19.0313H16.9925L17.0569 37.3365C17.0569 40.6834 18.8857 41.929 21.2384 41.929C22.5457 41.929 23.9839 41.5345 25.4222 41.0109C23.9839 45.4073 20.9122 49.9997 14.4423 49.9997C8.49626 49.9997 4.76971 46.0624 4.76971 38.4529Z"></path>
<path d="M26.4004 32.6131C26.4004 21.5899 33.6537 15.3574 44.1764 15.3574C56.5945 15.3574 60.1879 24.4777 60.1879 32.0872H40.0592C40.8427 37.9921 43.3929 42.0609 49.5365 42.0609C52.7392 42.0609 55.4181 41.2744 59.1424 39.1731L59.4044 39.3692C58.0971 43.5672 52.9345 49.998 43.8501 49.998C35.7467 49.998 26.4004 44.8797 26.4004 32.6109V32.6131ZM39.8639 30.3826L48.1626 27.7577C48.1626 23.8204 47.8363 18.3745 43.9788 18.3745C40.1213 18.3745 39.6663 23.7557 39.7307 27.8223C39.7307 28.6758 39.7951 29.5292 39.8616 30.3804L39.8639 30.3826Z"></path>
<path d="M61.4961 39.0436C61.4961 32.3521 67.3778 28.1518 73.9142 28.1518C75.8096 28.1518 78.8814 28.5462 81.4294 29.5958V25.9882C81.4294 21.5272 81.4294 18.6394 79.9912 18.6394C76.3312 18.6394 64.6988 27.9557 64.6988 27.9557H64.3726V17.5899C70.9734 16.0813 77.1813 15.3594 80.7769 15.3594C90.5138 15.3594 93.7166 20.6092 93.7166 26.9731V38.2592C93.7166 42.4573 94.4357 44.5585 97.8338 42.7871L98.0291 42.9832C97.7672 46.789 94.9573 49.8729 89.99 49.8729C85.9372 49.8729 83.1273 47.8385 82.0176 44.1641C80.6459 46.7222 77.4432 49.8729 72.0831 49.8729C65.0251 49.8729 61.4961 44.1641 61.4961 39.048V39.0436ZM79.1411 43.2416C80.0556 43.2416 80.839 42.9787 81.6247 42.3882C81.4938 41.6663 81.4294 40.9443 81.4294 40.0909V31.824C80.7747 31.6279 80.1221 31.5611 79.4696 31.5611C75.6787 31.5611 74.2427 33.923 74.2427 37.0716C74.2427 40.5499 75.9406 43.2394 79.1433 43.2394L79.1411 43.2416Z"></path>
<path d="M115.998 49.2112H99.6602V48.9483C99.6602 48.6853 101.687 42.9787 101.687 37.9919V12.534C101.687 7.54713 99.5292 2.10125 99.5292 1.83832L99.4648 1.57538L101.491 1.31245L113.974 0V37.9897C113.974 42.9765 116 48.6853 116 48.946V49.209L115.998 49.2112Z"></path>
</g>
</svg>